<?xml version="1.0" encoding="utf-8"?>
<!-- Generator: Adobe Illustrator 26.0.2, SVG Export Plug-In . SVG Version: 6.00 Build 0)  -->
<svg version="1.1" id="Layer_1" xmlns="http://www.w3.org/2000/svg" xmlns:xlink="http://www.w3.org/1999/xlink" x="0px" y="0px"
	 viewBox="0 0 32 32" style="enable-background:new 0 0 32 32;" xml:space="preserve">
<style type="text/css">
	.st0{fill:#0C1F28;}
	.st1{fill:#069E2D;}
</style>
<g>
	<path class="st0" d="M16,24.8H1v-5.3h4.3v1H16c2.5,0,4.5-2.1,4.5-4.6c0-2.5-2-4.4-4.5-4.5H1V7.2h15c4.9,0.1,8.8,4.1,8.8,8.9
		C24.7,20.9,20.8,24.8,16,24.8z"/>
	<path class="st1" d="M11.5,16c0-1.4,0.6-2.7,1.8-3.6H7.9c-1,2.3-1,4.9,0,7.2h5.3C12.1,18.7,11.5,17.4,11.5,16z"/>
	<path class="st0" d="M20.1,24.8H31v-4.3h-6.4C23.6,22.4,22,23.9,20.1,24.8L20.1,24.8z"/>
	<path class="st1" d="M12.4,16c0,2,1.6,3.6,3.6,3.6c2,0,3.6-1.6,3.6-3.6H12.4z"/>
	<path class="st0" d="M20.1,7.2c1.9,0.9,3.5,2.4,4.5,4.3h2.1v1H31V7.2H20.1z"/>
</g>
</svg>
